<svg xmlns="http://www.w3.org/2000/svg" xmlns:xlink="http://www.w3.org/1999/xlink" version="1.1" x="0px" y="0px" viewBox="0 0 128 160" style="enable-background:new 0 0 128 128;" xml:space="preserve"><g><path d="M39.5,52.4C41.8,64.1,52,72.6,64,72.6c12,0,22.2-8.5,24.5-20.2l3.8-19.7C94.5,16.9,82.2,2.8,66.3,2.8h-4.5   c-15.9,0-28.2,14.1-26.1,29.9L39.5,52.4z M42.2,38.1c0.2-0.2,0.5-0.4,0.8-0.3h0.3c0.3,0,0.6-0.1,0.8-0.3c0.2-0.2,0.4-0.5,0.4-0.8   c0-0.1,0.8-9.4,6.2-12.8c2.7-1.6,6.2-1.6,10.4,0.2c8.9,3.8,15.6,3.6,19.7,2.7c4.1,3.2,2.9,8.2,2.6,9.2v0.1   c-0.1,0.4-0.1,0.8,0.2,1.1c0.3,0.3,0.7,0.5,1.1,0.5c0.4-0.1,0.8,0,1.1,0.3c0,0,0,0.1,0.1,0.1l-2,10.1l-0.6,3   c-1.3,6.7-5.9,12-11.9,14.5c0,0,0,0,0,0c-2.3,0.9-4.8,1.4-7.4,1.4c-2.8,0-5.6-0.6-8-1.7c0,0,0,0,0,0c-5.7-2.6-10-7.7-11.2-14.2   l-0.6-2.8l-2-10.3C42.2,38.2,42.2,38.1,42.2,38.1z"/><path d="M115.4,88.5c-0.5-2.3-2.1-4.1-4.3-4.9l-24-8.5l-23,23l-23-23l-24,8.5c-2.2,0.8-3.8,2.6-4.3,4.9l-8.2,38.6h119.2L115.4,88.5   z"/></g><text x="0" y="143" fill="#000000" font-size="5px" font-weight="bold" font-family="'Helvetica Neue', Helvetica, Arial-Unicode, Arial, Sans-serif">Created by visual language</text><text x="0" y="148" fill="#000000" font-size="5px" font-weight="bold" font-family="'Helvetica Neue', Helvetica, Arial-Unicode, Arial, Sans-serif">from the Noun Project</text></svg>